<svg width="18" height="18" viewBox="0 0 18 18" fill="none" xmlns="http://www.w3.org/2000/svg">
<path fill-rule="evenodd" clip-rule="evenodd" d="M11.9806 17.927H9.81818C9.60119 17.927 9.39308 17.8411 9.23964 17.6883C9.0862 17.5355 9 17.3282 9 17.1121C9 16.896 9.0862 16.6887 9.23964 16.5359C9.39308 16.3831 9.60119 16.2973 9.81818 16.2973H11.9455C12.8757 16.2973 13.5237 16.2973 14.0285 16.2557C14.5235 16.215 14.8083 16.14 15.0235 16.0308C15.4853 15.7964 15.8608 15.4225 16.0961 14.9625C16.2057 14.7482 16.281 14.4646 16.3219 13.9716C16.3628 13.4689 16.3636 12.8227 16.3636 11.897V6.02998C16.3636 5.10348 16.3636 4.45811 16.3219 3.95534C16.281 3.46235 16.2057 3.17878 16.0961 2.96447C15.8608 2.50451 15.4853 2.13055 15.0235 1.89619C14.8083 1.78699 14.5235 1.71203 14.0285 1.67128C13.5237 1.63054 12.8749 1.62973 11.9455 1.62973H9.81818C9.60119 1.62973 9.39308 1.54387 9.23964 1.39106C9.0862 1.23824 9 1.03098 9 0.814863C9 0.598748 9.0862 0.391484 9.23964 0.238668C9.39308 0.0858513 9.60119 0 9.81818 0H11.9806C12.8675 0 13.5826 7.28544e-08 14.1619 0.0472621C14.7584 0.0961539 15.282 0.198012 15.7664 0.4441C16.5361 0.834712 17.1619 1.45798 17.5541 2.22457C17.8012 2.70697 17.9043 3.2293 17.9525 3.82252C18 4.40026 18 5.11163 18 5.99494V11.932C18 12.8153 18 13.5275 17.9525 14.1045C17.9035 14.6977 17.8012 15.22 17.5541 15.7024C17.1619 16.469 16.5361 17.0923 15.7664 17.4829C15.282 17.729 14.7584 17.8316 14.1619 17.8797C13.5818 17.927 12.8675 17.927 11.9806 17.927ZM0 8.96349C0 8.74737 0.086201 8.54011 0.23964 8.38729C0.393079 8.23448 0.601186 8.14863 0.818182 8.14863H8.66127L6.78518 6.28015C6.63614 6.12646 6.55368 5.92063 6.55554 5.70697C6.5574 5.49332 6.64345 5.28894 6.79515 5.13786C6.94685 4.98677 7.15206 4.90108 7.36658 4.89922C7.58111 4.89736 7.78778 4.9795 7.94209 5.12793L11.2148 8.38738C11.2909 8.46266 11.3513 8.55216 11.3926 8.65074C11.4339 8.74932 11.4552 8.85505 11.4554 8.96186V8.96593C11.4537 9.18758 11.3654 9.38803 11.2205 9.53471L11.214 9.54041L7.94209 12.7999C7.78857 12.9527 7.58039 13.0385 7.36335 13.0384C7.14631 13.0383 6.93819 12.9524 6.78477 12.7995C6.63136 12.6466 6.54521 12.4392 6.54529 12.2231C6.54537 12.0069 6.63166 11.7996 6.78518 11.6468L8.66127 9.77835H0.818182C0.601186 9.77835 0.393079 9.6925 0.23964 9.53968C0.086201 9.38687 0 9.1796 0 8.96349Z" fill="white" fill-opacity="0.25"/>
</svg>
