<svg width="49" height="22" viewBox="0 0 49 22" fill="none" xmlns="http://www.w3.org/2000/svg">
<g clip-path="url(#clip0_96_9)">
<path d="M31 17V5H33.8252V17H31Z" fill="white"/>
<path d="M36.7224 17V5H42.2683C43.5937 5 44.7621 5.25143 45.7736 5.75429C46.7852 6.24571 47.5758 6.93714 48.1455 7.82857C48.7152 8.72 49 9.77714 49 11C49 12.2114 48.7152 13.2686 48.1455 14.1714C47.5758 15.0629 46.7852 15.76 45.7736 16.2629C44.7621 16.7543 43.5937 17 42.2683 17H36.7224ZM39.5477 14.72H42.1287C42.9426 14.72 43.646 14.5714 44.2389 14.2743C44.8435 13.9657 45.3086 13.5314 45.6341 12.9714C45.9713 12.4114 46.1399 11.7543 46.1399 11C46.1399 10.2343 45.9713 9.57714 45.6341 9.02857C45.3086 8.46857 44.8435 8.04 44.2389 7.74286C43.646 7.43429 42.9426 7.28 42.1287 7.28H39.5477V14.72Z" fill="white"/>
<rect width="22" height="22" rx="3" fill="#15E78F"/>
<path fill-rule="evenodd" clip-rule="evenodd" d="M6 6V16H9.33333V11.4528L11.3913 9.04286L8.81159 6H6ZM12.6667 10.5472V10.5824L10.6875 13.0501L13.1884 16H16V6H12.6667V10.5472Z" fill="black"/>
</g>
<defs>
<clipPath id="clip0_96_9">
<rect width="49" height="22" rx="3" fill="white"/>
</clipPath>
</defs>
</svg>
