<svg width="18" height="21" viewBox="0 0 18 21" fill="none" xmlns="http://www.w3.org/2000/svg">
<path d="M12.1622 5.76401C12.1622 3.88483 10.6385 2.36323 8.75676 2.36323C8.30952 2.3631 7.86663 2.45097 7.45341 2.62183C7.04019 2.79269 6.66473 3.04319 6.34849 3.35901C6.03224 3.67482 5.7814 4.04977 5.61031 4.46243C5.43922 4.87509 5.35122 5.31737 5.35135 5.76401C5.35135 7.64318 6.87503 9.16479 8.75676 9.16479C10.6385 9.16479 12.1622 7.64318 12.1622 5.76401ZM14.1081 5.76401C14.1081 8.71686 11.7136 11.1081 8.75676 11.1081C8.05397 11.1082 7.35805 10.9701 6.70873 10.7016C6.05942 10.433 5.46944 10.0394 4.97249 9.54313C4.47555 9.04686 4.08138 8.45768 3.81249 7.80925C3.54361 7.16082 3.40528 6.46584 3.40541 5.76401C3.40541 2.81116 5.79989 0.419922 8.75676 0.419922C11.7136 0.419922 14.1081 2.81116 14.1081 5.76401ZM1.94595 17.5628C1.94595 18.479 1.86811 18.3955 2.38962 18.3955H15.6104C16.1319 18.3955 16.0541 18.479 16.0541 17.5628C16.0541 15.3396 12.8394 14.023 9 14.023C5.16065 14.023 1.94595 15.3396 1.94595 17.5628ZM0 17.5628C0 13.7928 4.18281 12.0797 9 12.0797C13.8172 12.0797 18 13.7928 18 17.5628C18 19.5216 17.2401 20.3388 15.6104 20.3388H2.38962C0.758919 20.3388 0 19.5226 0 17.5628Z" fill="white" fill-opacity="0.25"/>
</svg>
