<svg width="18" height="22" viewBox="0 0 18 22" fill="none" xmlns="http://www.w3.org/2000/svg">
<path d="M9 0C10.4322 0 11.8057 0.579463 12.8184 1.61091C13.8311 2.64236 14.4 4.04131 14.4 5.5L14.4018 7.35442C15.1605 7.40208 15.6438 7.53775 16.1433 7.80908C16.74 8.1345 17.2143 8.61667 17.5329 9.22442C17.8794 9.88442 18 10.5197 18 11.7755V17.5578C18 18.8137 17.8794 19.4489 17.5329 20.1089C17.2189 20.7114 16.7349 21.2044 16.1433 21.5243C15.4953 21.8772 14.8716 22 13.6386 22H4.3614C3.1284 22 2.5047 21.8772 1.8567 21.5243C1.26512 21.2044 0.781137 20.7114 0.4671 20.1089C0.1206 19.4489 0 18.8137 0 17.5578V11.7755C0 10.5197 0.1206 9.88442 0.4671 9.22442C0.781137 8.62189 1.26512 8.12894 1.8567 7.80908C2.3562 7.53683 2.8404 7.40208 3.5991 7.35442L3.6 5.5C3.6 4.04131 4.16893 2.64236 5.18162 1.61091C6.19432 0.579463 7.56783 0 9 0ZM13.6386 9.16667H4.3614C3.4002 9.16667 3.0573 9.23358 2.7054 9.42608C2.4228 9.58008 2.2059 9.801 2.0547 10.0888C1.8657 10.4472 1.8 10.7965 1.8 11.7755V17.5578C1.8 18.5368 1.8657 18.8861 2.0547 19.2445C2.2059 19.5323 2.4228 19.7532 2.7054 19.9072C3.0573 20.0997 3.4002 20.1667 4.3614 20.1667H13.6386C14.5998 20.1667 14.9427 20.0997 15.2946 19.9072C15.5772 19.7532 15.7941 19.5323 15.9453 19.2445C16.1343 18.8861 16.2 18.5368 16.2 17.5578V11.7755C16.2 10.7965 16.1343 10.4472 15.9453 10.0888C15.7991 9.80605 15.5722 9.57499 15.2946 9.42608C14.9427 9.23358 14.5998 9.16667 13.6386 9.16667ZM9 11.9167C9.23869 11.9167 9.46761 12.0132 9.6364 12.1852C9.80518 12.3571 9.9 12.5902 9.9 12.8333V15.5833C9.9 15.8264 9.80518 16.0596 9.6364 16.2315C9.46761 16.4034 9.23869 16.5 9 16.5C8.7613 16.5 8.53239 16.4034 8.3636 16.2315C8.19482 16.0596 8.1 15.8264 8.1 15.5833V12.8333C8.1 12.5902 8.19482 12.3571 8.3636 12.1852C8.53239 12.0132 8.7613 11.9167 9 11.9167ZM9 1.83333C8.04522 1.83333 7.12955 2.21964 6.45442 2.90728C5.77928 3.59491 5.4 4.52754 5.4 5.5V7.33333H12.6V5.5C12.6 4.52754 12.2207 3.59491 11.5456 2.90728C10.8705 2.21964 9.95478 1.83333 9 1.83333Z" fill="white" fill-opacity="0.25"/>
</svg>
