<svg width="1920" height="1080" viewBox="0 0 1920 1080" fill="none" xmlns="http://www.w3.org/2000/svg">
<mask id="path-1-outside-1_181_24" maskUnits="userSpaceOnUse" x="-44" y="592" width="2502" height="506" fill="black">
<rect fill="white" x="-44" y="592" width="2502" height="506"/>
<path d="M61.1533 797.851H294.46V885.215H61.1533V797.851ZM69.461 997.541H333.229V1087.68H-42V602.32H324.229V692.459H69.461V997.541ZM422.466 1087.68V602.32H632.234C675.618 602.32 713.003 609.485 744.387 623.815C775.772 637.682 800.002 657.79 817.079 684.138C834.156 710.486 842.695 741.919 842.695 778.436C842.695 814.492 834.156 845.693 817.079 872.041C800.002 897.927 775.772 917.804 744.387 931.671C713.003 945.539 675.618 952.472 632.234 952.472H484.773L534.619 903.243V1087.68H422.466ZM730.541 1087.68L609.388 911.564H729.157L851.694 1087.68H730.541ZM534.619 915.724L484.773 863.028H626.003C660.618 863.028 686.464 855.632 703.541 840.84C720.618 825.586 729.157 804.785 729.157 778.436C729.157 751.626 720.618 730.825 703.541 716.033C686.464 701.241 660.618 693.845 626.003 693.845H484.773L534.619 640.456V915.724ZM931.553 1087.68V602.32H1141.32C1184.71 602.32 1222.09 609.485 1253.47 623.815C1284.86 637.682 1309.09 657.79 1326.17 684.138C1343.24 710.486 1351.78 741.919 1351.78 778.436C1351.78 814.492 1343.24 845.693 1326.17 872.041C1309.09 897.927 1284.86 917.804 1253.47 931.671C1222.09 945.539 1184.71 952.472 1141.32 952.472H993.86L1043.71 903.243V1087.68H931.553ZM1239.63 1087.68L1118.47 911.564H1238.24L1360.78 1087.68H1239.63ZM1043.71 915.724L993.86 863.028H1135.09C1169.71 863.028 1195.55 855.632 1212.63 840.84C1229.71 825.586 1238.24 804.785 1238.24 778.436C1238.24 751.626 1229.71 730.825 1212.63 716.033C1195.55 701.241 1169.71 693.845 1135.09 693.845H993.86L1043.71 640.456V915.724ZM1676.02 1096C1637.72 1096 1602.18 1089.76 1569.41 1077.28C1537.1 1064.8 1508.95 1047.23 1484.95 1024.58C1461.41 1001.93 1442.95 975.354 1429.56 944.845C1416.64 914.337 1410.18 881.055 1410.18 845C1410.18 808.945 1416.64 775.663 1429.56 745.155C1442.95 714.646 1461.64 688.067 1485.64 665.417C1509.64 642.767 1537.79 625.202 1570.1 612.721C1602.41 600.24 1637.48 594 1675.33 594C1713.64 594 1748.72 600.24 1780.56 612.721C1812.87 625.202 1840.79 642.767 1864.33 665.417C1888.33 688.067 1907.02 714.646 1920.41 745.155C1933.79 775.201 1940.48 808.482 1940.48 845C1940.48 881.055 1933.79 914.568 1920.41 945.539C1907.02 976.047 1888.33 1002.63 1864.33 1025.28C1840.79 1047.46 1812.87 1064.8 1780.56 1077.28C1748.72 1089.76 1713.87 1096 1676.02 1096ZM1675.33 1000.31C1697.02 1000.31 1716.87 996.617 1734.87 989.221C1753.33 981.825 1769.48 971.193 1783.33 957.326C1797.18 943.459 1807.79 927.049 1815.18 908.097C1823.02 889.145 1826.95 868.112 1826.95 845C1826.95 821.888 1823.02 800.855 1815.18 781.903C1807.79 762.951 1797.18 746.541 1783.33 732.674C1769.95 718.807 1754.02 708.175 1735.56 700.779C1717.1 693.383 1697.02 689.685 1675.33 689.685C1653.64 689.685 1633.56 693.383 1615.1 700.779C1597.1 708.175 1581.18 718.807 1567.33 732.674C1553.49 746.541 1542.64 762.951 1534.79 781.903C1527.41 800.855 1523.72 821.888 1523.72 845C1523.72 867.65 1527.41 888.682 1534.79 908.097C1542.64 927.049 1553.25 943.459 1566.64 957.326C1580.49 971.193 1596.64 981.825 1615.1 989.221C1633.56 996.617 1653.64 1000.31 1675.33 1000.31ZM2024.77 1087.68V602.32H2234.54C2277.92 602.32 2315.31 609.485 2346.69 623.815C2378.08 637.682 2402.31 657.79 2419.38 684.138C2436.46 710.486 2445 741.919 2445 778.436C2445 814.492 2436.46 845.693 2419.38 872.041C2402.31 897.927 2378.08 917.804 2346.69 931.671C2315.31 945.539 2277.92 952.472 2234.54 952.472H2087.08L2136.92 903.243V1087.68H2024.77ZM2332.85 1087.68L2211.69 911.564H2331.46L2454 1087.68H2332.85ZM2136.92 915.724L2087.08 863.028H2228.31C2262.92 863.028 2288.77 855.632 2305.85 840.84C2322.92 825.586 2331.46 804.785 2331.46 778.436C2331.46 751.626 2322.92 730.825 2305.85 716.033C2288.77 701.241 2262.92 693.845 2228.31 693.845H2087.08L2136.92 640.456V915.724Z"/>
</mask>
<path d="M61.1533 797.851H294.46V885.215H61.1533V797.851ZM69.461 997.541H333.229V1087.68H-42V602.32H324.229V692.459H69.461V997.541ZM422.466 1087.68V602.32H632.234C675.618 602.32 713.003 609.485 744.387 623.815C775.772 637.682 800.002 657.79 817.079 684.138C834.156 710.486 842.695 741.919 842.695 778.436C842.695 814.492 834.156 845.693 817.079 872.041C800.002 897.927 775.772 917.804 744.387 931.671C713.003 945.539 675.618 952.472 632.234 952.472H484.773L534.619 903.243V1087.68H422.466ZM730.541 1087.68L609.388 911.564H729.157L851.694 1087.68H730.541ZM534.619 915.724L484.773 863.028H626.003C660.618 863.028 686.464 855.632 703.541 840.84C720.618 825.586 729.157 804.785 729.157 778.436C729.157 751.626 720.618 730.825 703.541 716.033C686.464 701.241 660.618 693.845 626.003 693.845H484.773L534.619 640.456V915.724ZM931.553 1087.68V602.32H1141.32C1184.71 602.32 1222.09 609.485 1253.47 623.815C1284.86 637.682 1309.09 657.79 1326.17 684.138C1343.24 710.486 1351.78 741.919 1351.78 778.436C1351.78 814.492 1343.24 845.693 1326.17 872.041C1309.09 897.927 1284.86 917.804 1253.47 931.671C1222.09 945.539 1184.71 952.472 1141.32 952.472H993.86L1043.71 903.243V1087.68H931.553ZM1239.63 1087.68L1118.47 911.564H1238.24L1360.78 1087.68H1239.63ZM1043.71 915.724L993.86 863.028H1135.09C1169.71 863.028 1195.55 855.632 1212.63 840.84C1229.71 825.586 1238.24 804.785 1238.24 778.436C1238.24 751.626 1229.71 730.825 1212.63 716.033C1195.55 701.241 1169.71 693.845 1135.09 693.845H993.86L1043.71 640.456V915.724ZM1676.02 1096C1637.72 1096 1602.18 1089.76 1569.41 1077.28C1537.1 1064.8 1508.95 1047.23 1484.95 1024.58C1461.41 1001.93 1442.95 975.354 1429.56 944.845C1416.64 914.337 1410.18 881.055 1410.18 845C1410.18 808.945 1416.64 775.663 1429.56 745.155C1442.95 714.646 1461.64 688.067 1485.64 665.417C1509.64 642.767 1537.79 625.202 1570.1 612.721C1602.41 600.24 1637.48 594 1675.33 594C1713.64 594 1748.72 600.24 1780.56 612.721C1812.87 625.202 1840.79 642.767 1864.33 665.417C1888.33 688.067 1907.02 714.646 1920.41 745.155C1933.79 775.201 1940.48 808.482 1940.48 845C1940.48 881.055 1933.79 914.568 1920.41 945.539C1907.02 976.047 1888.33 1002.63 1864.33 1025.28C1840.79 1047.46 1812.87 1064.8 1780.56 1077.28C1748.72 1089.76 1713.87 1096 1676.02 1096ZM1675.33 1000.31C1697.02 1000.31 1716.87 996.617 1734.87 989.221C1753.33 981.825 1769.48 971.193 1783.33 957.326C1797.18 943.459 1807.79 927.049 1815.18 908.097C1823.02 889.145 1826.95 868.112 1826.95 845C1826.95 821.888 1823.02 800.855 1815.18 781.903C1807.79 762.951 1797.18 746.541 1783.33 732.674C1769.95 718.807 1754.02 708.175 1735.56 700.779C1717.1 693.383 1697.02 689.685 1675.33 689.685C1653.64 689.685 1633.56 693.383 1615.1 700.779C1597.1 708.175 1581.18 718.807 1567.33 732.674C1553.49 746.541 1542.64 762.951 1534.79 781.903C1527.41 800.855 1523.72 821.888 1523.72 845C1523.72 867.65 1527.41 888.682 1534.79 908.097C1542.64 927.049 1553.25 943.459 1566.64 957.326C1580.49 971.193 1596.64 981.825 1615.1 989.221C1633.56 996.617 1653.64 1000.31 1675.33 1000.31ZM2024.77 1087.68V602.32H2234.54C2277.92 602.32 2315.31 609.485 2346.69 623.815C2378.08 637.682 2402.31 657.79 2419.38 684.138C2436.46 710.486 2445 741.919 2445 778.436C2445 814.492 2436.46 845.693 2419.38 872.041C2402.31 897.927 2378.08 917.804 2346.69 931.671C2315.31 945.539 2277.92 952.472 2234.54 952.472H2087.08L2136.92 903.243V1087.68H2024.77ZM2332.85 1087.68L2211.69 911.564H2331.46L2454 1087.68H2332.85ZM2136.92 915.724L2087.08 863.028H2228.31C2262.92 863.028 2288.77 855.632 2305.85 840.84C2322.92 825.586 2331.46 804.785 2331.46 778.436C2331.46 751.626 2322.92 730.825 2305.85 716.033C2288.77 701.241 2262.92 693.845 2228.31 693.845H2087.08L2136.92 640.456V915.724Z" stroke="white" stroke-opacity="0.1" stroke-width="4" mask="url(#path-1-outside-1_181_24)"/>
<path d="M-191 436.55V437.55H-190H118.313V557.155V558.155H119.313H248.945H249.945V557.155V437.55H342.478H343.478V436.55V328.251V327.251H342.478H249.945V220.773V219.773H248.945H123.415H122.415V220.773V327.251H-29.0868L221.038 -16.5664L222.194 -18.1547H220.229H80.7514H80.2487L79.9489 -17.7513L-190.803 346.525L-191 346.791V347.122V436.55ZM501.484 533.387L501.493 533.392C538.857 556.47 581.159 568 628.369 568C676.124 568 718.429 556.471 755.251 533.389L755.254 533.387C792.625 509.756 822.007 475.693 843.41 431.24C864.823 386.769 875.507 333.01 875.507 270C875.507 206.99 864.823 153.231 843.41 108.76C822.007 64.3083 792.625 30.5169 755.252 7.43212C718.43 -16.1967 676.125 -28 628.369 -28C581.156 -28 538.852 -16.1946 501.488 7.4311C464.114 30.5159 434.732 64.3077 413.328 108.76C391.916 153.231 381.232 206.99 381.232 270C381.232 333.01 391.916 386.769 413.328 431.24C434.732 475.693 464.114 509.756 501.484 533.387ZM686.026 434.926L686.02 434.931L686.013 434.936C669.794 447.37 650.595 453.599 628.369 453.599C606.699 453.599 587.494 447.375 570.718 434.931C554.516 422.507 541.483 402.737 531.679 375.508C522.43 348.303 517.787 313.146 517.787 270C517.787 226.854 522.43 191.697 531.679 164.491C541.483 137.263 554.516 117.493 570.719 105.069C587.494 92.6249 606.699 86.4005 628.369 86.4005C650.595 86.4005 669.794 92.6296 686.013 105.064L686.02 105.069L686.026 105.074C702.769 117.496 715.8 137.26 725.057 164.485L725.06 164.493L725.063 164.502C734.855 191.702 739.772 226.855 739.772 270C739.772 313.145 734.855 348.298 725.063 375.498L725.06 375.507L725.057 375.515C715.8 402.74 702.769 422.504 686.026 434.926ZM931.522 436.55V437.55H932.522H1240.84V557.155V558.155H1241.84H1371.47H1372.47V557.155V437.55H1465H1466V436.55V328.251V327.251H1465H1372.47V220.773V219.773H1371.47H1245.94H1244.94V220.773V327.251H1093.44L1343.56 -16.5664L1344.72 -18.1547H1342.75H1203.27H1202.77L1202.47 -17.7513L931.72 346.525L931.522 346.791V347.122V436.55Z" stroke="white" stroke-opacity="0.1" stroke-width="2"/>
<rect x="1534" y="-177" width="560" height="718" rx="2" stroke="#15E78F" stroke-width="2"/>
</svg>
