<svg width="320" height="26" viewBox="0 0 320 26" fill="none" xmlns="http://www.w3.org/2000/svg">
<g clip-path="url(#clip0_8_28)">
<path d="M14.331 26C11.6048 26 9.14876 25.4405 6.96288 24.3214C4.80156 23.2024 3.09461 21.6548 1.84203 19.6786C0.614011 17.7024 0 15.4762 0 13C0 10.5238 0.614011 8.29762 1.84203 6.32143C3.09461 4.34524 4.80156 2.79762 6.96288 1.67857C9.14876 0.559524 11.6048 0 14.331 0C17.0572 0 19.501 0.559524 21.6623 1.67857C23.8482 2.79762 25.5551 4.34524 26.7832 6.32143C28.0357 8.29762 28.662 10.5238 28.662 13C28.662 15.4762 28.0357 17.7024 26.7832 19.6786C25.5551 21.6548 23.8482 23.2024 21.6623 24.3214C19.501 25.4405 17.0572 26 14.331 26ZM14.331 20.1429C15.6327 20.1429 16.8116 19.8452 17.8677 19.25C18.9238 18.6548 19.7589 17.8214 20.3729 16.75C20.9869 15.6548 21.2939 14.4048 21.2939 13C21.2939 11.5952 20.9869 10.3571 20.3729 9.28572C19.7589 8.19048 18.9238 7.34524 17.8677 6.75C16.8116 6.15476 15.6327 5.85714 14.331 5.85714C13.0293 5.85714 11.8504 6.15476 10.7943 6.75C9.73821 7.34524 8.90316 8.19048 8.28915 9.28572C7.67514 10.3571 7.36813 11.5952 7.36813 13C7.36813 14.4048 7.67514 15.6548 8.28915 16.75C8.90316 17.8214 9.73821 18.6548 10.7943 19.25C11.8504 19.8452 13.0293 20.1429 14.331 20.1429Z" fill="white"/>
<path d="M82.3892 20.0357V25.5H62.1637V0.5H82.3892V5.96429H69.3845V10.1786H82.3892V15.4643H69.3845V20.0357H82.3892Z" fill="white"/>
<path d="M89.8915 25.8214C88.7126 25.8214 87.7179 25.4405 86.9074 24.6786C86.0969 23.9167 85.6917 22.9524 85.6917 21.7857C85.6917 20.5952 86.0846 19.631 86.8705 18.8929C87.681 18.1548 88.688 17.7857 89.8915 17.7857C91.1195 17.7857 92.1265 18.1548 92.9124 18.8929C93.6983 19.631 94.0913 20.5952 94.0913 21.7857C94.0913 22.9524 93.6861 23.9167 92.8756 24.6786C92.0896 25.4405 91.0949 25.8214 89.8915 25.8214Z" fill="white"/>
<path d="M89.8915 25.8214C88.7126 25.8214 87.7179 25.4405 86.9074 24.6786C86.0969 23.9167 85.6917 22.9524 85.6917 21.7857C85.6917 20.5952 86.0846 19.631 86.8705 18.8929C87.681 18.1548 88.688 17.7857 89.8915 17.7857C91.1195 17.7857 92.1265 18.1548 92.9124 18.8929C93.6983 19.631 94.0913 20.5952 94.0913 21.7857C94.0913 22.9524 93.6861 23.9167 92.8756 24.6786C92.0896 25.4405 91.0949 25.8214 89.8915 25.8214Z" fill="url(#paint0_linear_8_28)"/>
<path d="M108.982 18.8571H105.004V25.5H97.7092V0.5H109.498C111.831 0.5 113.858 0.880952 115.577 1.64286C117.296 2.38095 118.622 3.45238 119.556 4.85714C120.489 6.2381 120.956 7.86905 120.956 9.75C120.956 11.5595 120.514 13.1429 119.629 14.5C118.77 15.8333 117.529 16.881 115.908 17.6429L121.471 25.5H113.661L108.982 18.8571ZM113.588 9.75C113.588 8.58333 113.207 7.67857 112.445 7.03571C111.684 6.39286 110.554 6.07143 109.056 6.07143H105.004V13.3929H109.056C110.554 13.3929 111.684 13.0833 112.445 12.4643C113.207 11.8214 113.588 10.9167 113.588 9.75Z" fill="white"/>
<path d="M136.879 26C133.048 26 130.064 24.9881 127.927 22.9643C125.815 20.9405 124.759 18.0714 124.759 14.3571V0.5H132.053V14.1429C132.053 18.1429 133.687 20.1429 136.953 20.1429C140.195 20.1429 141.816 18.1429 141.816 14.1429V0.5H149V14.3571C149 18.0714 147.932 20.9405 145.795 22.9643C143.683 24.9881 140.711 26 136.879 26Z" fill="white"/>
<path fill-rule="evenodd" clip-rule="evenodd" d="M57.0184 25.5V0.5H49.8713V13.8214L45.3215 18.8393L51.0134 25.5H57.0184ZM39.6296 25.5V12.1786L44.1794 7.16071L38.4875 0.5H32.4825V25.5H39.6296Z" fill="white"/>
<path d="M167.992 20L174.018 14.0208L180.008 20L181 19.0156L174.974 13L181 6.98438L180.008 6L174.018 12.0156L167.992 6L167 6.98438L173.026 13L167 19.0156L167.992 20Z" fill="white"/>
<path d="M221.648 25.5L221.576 12.25L215.126 23.0357H211.972L205.558 12.6071V25.5H199V0.5H204.841L213.657 14.9286L222.257 0.5H228.098L228.17 25.5H221.648Z" fill="white"/>
<path d="M244.765 26C241.038 26 238.136 24.9881 236.057 22.9643C234.003 20.9405 232.975 18.0714 232.975 14.3571V0.5H240.071V14.1429C240.071 18.1429 241.66 20.1429 244.837 20.1429C247.99 20.1429 249.567 18.1429 249.567 14.1429V0.5H256.555V14.3571C256.555 18.0714 255.516 20.9405 253.437 22.9643C251.383 24.9881 248.492 26 244.765 26Z" fill="white"/>
<path d="M270.177 26C268.147 26 266.176 25.75 264.264 25.25C262.353 24.75 260.8 24.0833 259.606 23.25L261.935 18.0357C263.058 18.7738 264.36 19.369 265.841 19.8214C267.322 20.2738 268.78 20.5 270.213 20.5C272.937 20.5 274.298 19.8214 274.298 18.4643C274.298 17.75 273.904 17.2262 273.116 16.8929C272.351 16.5357 271.109 16.1667 269.389 15.7857C267.502 15.381 265.925 14.9524 264.659 14.5C263.392 14.0238 262.305 13.2738 261.398 12.25C260.49 11.2262 260.036 9.84524 260.036 8.10714C260.036 6.58333 260.454 5.21429 261.29 4C262.126 2.7619 263.369 1.78571 265.017 1.07143C266.689 0.357143 268.732 0 271.145 0C272.793 0 274.418 0.190477 276.018 0.57143C277.619 0.928572 279.029 1.46429 280.247 2.17857L278.061 7.42857C275.672 6.14286 273.355 5.5 271.109 5.5C269.699 5.5 268.672 5.71429 268.027 6.14286C267.382 6.54762 267.06 7.08333 267.06 7.75C267.06 8.41667 267.442 8.91667 268.206 9.25C268.971 9.58333 270.201 9.92857 271.897 10.2857C273.809 10.6905 275.385 11.131 276.628 11.6071C277.894 12.0595 278.981 12.7976 279.889 13.8214C280.82 14.8214 281.286 16.1905 281.286 17.9286C281.286 19.4286 280.868 20.7857 280.032 22C279.196 23.2143 277.942 24.1905 276.269 24.9286C274.597 25.6429 272.566 26 270.177 26Z" fill="white"/>
<path d="M284.564 0.5H291.659V25.5H284.564V0.5Z" fill="white"/>
<path d="M309.214 26C306.586 26 304.221 25.4524 302.118 24.3571C300.04 23.2381 298.403 21.6905 297.209 19.7143C296.014 17.7381 295.417 15.5 295.417 13C295.417 10.5 296.014 8.2619 297.209 6.28571C298.403 4.30952 300.04 2.77381 302.118 1.67857C304.221 0.559524 306.586 0 309.214 0C311.507 0 313.574 0.404762 315.413 1.21429C317.253 2.02381 318.782 3.19048 320 4.71429L315.485 8.78571C313.86 6.83333 311.889 5.85714 309.572 5.85714C308.21 5.85714 306.992 6.15476 305.917 6.75C304.866 7.34524 304.041 8.19048 303.444 9.28571C302.871 10.3571 302.584 11.5952 302.584 13C302.584 14.4048 302.871 15.6548 303.444 16.75C304.041 17.8214 304.866 18.6548 305.917 19.25C306.992 19.8452 308.21 20.1429 309.572 20.1429C311.889 20.1429 313.86 19.1667 315.485 17.2143L320 21.2857C318.782 22.8095 317.253 23.9762 315.413 24.7857C313.574 25.5952 311.507 26 309.214 26Z" fill="white"/>
</g>
<defs>
<linearGradient id="paint0_linear_8_28" x1="90.6726" y1="17.8431" x2="89.6912" y2="26.0095" gradientUnits="userSpaceOnUse">
<stop stop-color="#0E4FF1"/>
<stop offset="1" stop-color="#1CE786"/>
</linearGradient>
<clipPath id="clip0_8_28">
<rect width="320" height="26" fill="white"/>
</clipPath>
</defs>
</svg>
