<svg width="22" height="20" viewBox="0 0 22 20" fill="none" xmlns="http://www.w3.org/2000/svg">
<path d="M13.8912 0C15.1183 0 15.7761 0.136122 16.4426 0.509506C17.056 0.850324 17.5578 1.37585 17.8832 2.01825C18.2172 2.673 18.3522 3.31863 18.3682 4.45627L18.3696 4.66996L18.3704 4.59392C19.1015 4.65171 19.58 4.7962 20.073 5.073C20.6863 5.41362 21.188 5.93886 21.5135 6.58099C21.8533 7.24639 21.9848 7.88897 21.9985 9.1019L22 9.33688V15.2259C22 16.5947 21.8744 17.2745 21.5135 17.9818C21.1881 18.6242 20.6864 19.1497 20.073 19.4905C19.4377 19.8464 18.8242 19.984 17.6661 19.9985L17.4417 20H4.55828C3.25135 20 2.60224 19.8684 1.927 19.4905C1.31364 19.1497 0.811877 18.6242 0.486469 17.9818C0.146667 17.3164 0.0152476 16.6738 0.00145221 15.4608L0 15.2259V4.56274C0.00943894 3.35818 0.14231 2.69278 0.486469 2.01825C0.811877 1.37585 1.31364 0.850324 1.927 0.509506C2.55215 0.159696 3.16858 0.0182512 4.25479 0.00152117L4.47842 0H13.8912ZM17.4417 6.31179H1.66997V15.2259C1.66997 16.33 1.74475 16.7376 1.95894 17.1574C2.13465 17.4996 2.38733 17.7643 2.71406 17.9483C3.04224 18.1316 3.36317 18.2175 4.04785 18.2426L4.21267 18.2479L4.55828 18.251H17.4417C18.496 18.251 18.8851 18.1726 19.2859 17.9483C19.6081 17.7705 19.8713 17.4948 20.0411 17.1574C20.216 16.8137 20.2981 16.4776 20.322 15.7605L20.3271 15.5878L20.33 15.2259V9.33688C20.33 8.2327 20.2552 7.8251 20.0411 7.40532C19.8713 7.06794 19.6081 6.79223 19.2859 6.61445C18.8851 6.39011 18.496 6.31179 17.4417 6.31179ZM16.6997 11.3308C16.9211 11.3308 17.1335 11.4229 17.2901 11.5869C17.4467 11.7509 17.5347 11.9734 17.5347 12.2053C17.5347 12.4373 17.4467 12.6597 17.2901 12.8237C17.1335 12.9877 16.9211 13.0798 16.6997 13.0798H14.7393C14.5178 13.0798 14.3054 12.9877 14.1489 12.8237C13.9923 12.6597 13.9043 12.4373 13.9043 12.2053C13.9043 11.9734 13.9923 11.7509 14.1489 11.5869C14.3054 11.4229 14.5178 11.3308 14.7393 11.3308H16.6997ZM13.8912 1.74905L4.30271 1.74981C3.45465 1.7597 3.08436 1.84487 2.71479 2.05171C2.39265 2.22949 2.12941 2.5052 1.95967 2.84259C1.78832 3.17719 1.70554 3.51103 1.67868 4.16502L1.6736 4.33536L1.67069 4.56274H16.6989L16.6953 4.32243C16.6801 3.67605 16.6176 3.31863 16.4862 3.00532L16.4484 2.92091L16.4107 2.84335C16.2409 2.50596 15.9777 2.23025 15.6556 2.05247C15.2606 1.83118 14.8656 1.74905 13.8912 1.74905Z" fill="#15E78F"/>
</svg>
