<svg width="22" height="22" viewBox="0 0 22 22" fill="none" xmlns="http://www.w3.org/2000/svg">
<path d="M9.95053 0.41518L0.914205 8.88869C0.625686 9.15913 0.395701 9.48586 0.238459 9.84868C0.0812171 10.2115 5.91327e-05 10.6027 0 10.9981V19.6069C0 20.9282 1.07124 22 2.39357 22H9.36749V15.6515C9.36749 15.2186 9.53949 14.8034 9.84564 14.4973C10.1518 14.1912 10.567 14.0193 11 14.0193C11.433 14.0193 11.8482 14.1912 12.1544 14.4973C12.4605 14.8034 12.6325 15.2186 12.6325 15.6515V22H19.6064C20.928 22 22 20.929 22 19.6069V10.9989C22 10.1999 21.6688 9.43664 21.0858 8.88946L12.0495 0.41518C11.7651 0.148454 11.3899 0 11 0C10.6101 0 10.2349 0.148454 9.95053 0.41518ZM2.13781 10.1929L11 1.88262L19.863 10.1945C20.0853 10.4028 20.212 10.6942 20.212 10.9997V19.6084L20.2066 19.6908C20.1867 19.8358 20.1149 19.9687 20.0046 20.0648C19.8942 20.161 19.7528 20.2139 19.6064 20.2139H14.4205L14.4213 15.653C14.4213 14.746 14.0609 13.8762 13.4194 13.2348C12.778 12.5935 11.9079 12.2332 11.0008 12.2332L10.8352 12.237C9.9577 12.2796 9.13021 12.658 8.52423 13.294C7.91825 13.93 7.58025 14.7747 7.58028 15.653L7.5795 20.2139H2.39435C2.23374 20.2139 2.0797 20.1501 1.96613 20.0366C1.85257 19.923 1.78876 19.769 1.78876 19.6084V10.9989C1.78876 10.6934 1.91548 10.4012 2.13781 10.1929Z" fill="#15E78F"/>
</svg>
