<svg width="22" height="22" viewBox="0 0 22 22" fill="none" xmlns="http://www.w3.org/2000/svg">
<path d="M21.1856 0C21.3861 7.89679e-05 21.5796 0.073844 21.7289 0.207162C21.8783 0.340479 21.9729 0.523974 21.9948 0.722487L22 0.810955V4.60254C22.0001 4.80237 21.9261 4.99521 21.7922 5.14405C21.6583 5.2929 21.4739 5.38727 21.2744 5.40907L21.1856 5.4135H19.1436V7.44604C19.1437 7.63087 19.0804 7.8102 18.9642 7.95433C18.848 8.09846 18.6859 8.19875 18.5046 8.23857L18.4187 8.25258L18.3299 8.257H16.2879V10.2895C16.288 10.4744 16.2247 10.6537 16.1085 10.7978C15.9923 10.942 15.8302 11.0423 15.6489 11.0821L15.5623 11.0961L15.4734 11.1005H12.9546L12.8539 11.2008L12.9976 11.4264C13.5638 12.3583 13.9017 13.41 13.9838 14.4962L13.9986 14.7719L14.0038 15.0292C14.0035 16.4683 13.556 17.8721 12.7227 19.0479C11.8894 20.2238 10.711 21.114 9.34939 21.5965C7.98775 22.079 6.50952 22.1301 5.11755 21.7428C3.72558 21.3555 2.48808 20.5488 1.57486 19.4333C0.661633 18.3179 0.117439 16.9484 0.0169496 15.5128C-0.0835404 14.0771 0.264598 12.6457 1.01359 11.4149C1.76259 10.1841 2.87573 9.21424 4.20029 8.63842C5.52484 8.06259 6.9959 7.90902 8.41159 8.19876L8.68628 8.25995L8.73218 8.27248L16.8025 0.237389C16.9061 0.13428 17.0358 0.0609283 17.1778 0.0250658L17.2859 0.0051606L17.3777 0H21.1856ZM20.3711 1.62191H17.7139L9.54439 9.75874C9.46157 9.84139 9.3618 9.90525 9.25191 9.94597C9.14202 9.98668 9.02459 10.0033 8.90765 9.99465L8.80844 9.98065L8.70997 9.95485C7.48222 9.54451 6.14695 9.58954 4.94989 10.0816C3.75284 10.5737 2.77456 11.4798 2.1951 12.633C1.61564 13.7863 1.47399 15.1091 1.79623 16.3581C2.11847 17.6071 2.88291 18.6981 3.94886 19.4305C5.0148 20.1628 6.31053 20.4871 7.59756 20.3438C8.88459 20.2004 10.0763 19.599 10.9534 18.6503C11.8305 17.7015 12.334 16.4692 12.3711 15.1802C12.4082 13.8912 11.9765 12.6323 11.1555 11.635C11.0375 11.492 10.9723 11.3131 10.9705 11.128C10.9688 10.9429 11.0306 10.7628 11.1459 10.6176L11.2095 10.5461L12.0432 9.71598C12.1734 9.58639 12.3438 9.50454 12.5267 9.48375L12.6185 9.47859H14.6598V7.44604C14.6598 7.05826 14.9337 6.73388 15.3002 6.65426L15.3861 6.63951L15.4749 6.63509H17.5154V4.60254C17.5154 4.21402 17.7894 3.88964 18.1559 3.81002L18.2418 3.79601L18.3306 3.79158H20.3711V1.62191ZM5.47816 15.2187C5.80638 15.2187 6.12116 15.3485 6.35325 15.5796C6.58534 15.8107 6.71573 16.1241 6.71573 16.451C6.71573 16.7778 6.58534 17.0912 6.35325 17.3223C6.12116 17.5534 5.80638 17.6832 5.47816 17.6832C5.14994 17.6832 4.83516 17.5534 4.60307 17.3223C4.37098 17.0912 4.2406 16.7778 4.2406 16.451C4.2406 16.1241 4.37098 15.8107 4.60307 15.5796C4.83516 15.3485 5.14994 15.2187 5.47816 15.2187Z" fill="#15E78F"/>
</svg>
