<svg width="18" height="22" viewBox="0 0 18 22" fill="none" xmlns="http://www.w3.org/2000/svg">
<path d="M4.08593 6.32728L6.17475 6.32588C7.40669 6.32588 8.01856 6.44748 8.65506 6.7968C9.23322 7.11182 9.70619 7.59755 10.0129 8.19131C10.3332 8.80632 10.4571 9.40026 10.4701 10.5213L10.4715 10.7385L10.4701 17.8045C10.4564 18.9263 10.3332 19.5196 10.0129 20.1346C9.70619 20.7283 9.23322 21.2141 8.65506 21.5291C8.0562 21.858 7.47787 21.9852 6.38624 21.9986L6.17475 22L4.08525 21.9986C2.99293 21.9845 2.41529 21.858 1.81643 21.5291C1.23826 21.2141 0.765291 20.7283 0.458555 20.1346C0.138251 19.5196 0.0143727 18.9256 0.00136889 17.8045L0 10.7385C0 9.47335 0.118403 8.84498 0.458555 8.19131C0.765291 7.59755 1.23826 7.11182 1.81643 6.7968C2.41529 6.46786 2.9943 6.34064 4.08593 6.32728ZM9.73232 0.00140582L12.8259 0C14.3357 0 15.0707 0.145495 15.8332 0.565112C16.5215 0.940054 17.0846 1.51835 17.4497 2.2253C17.8364 2.96754 17.9843 3.68377 17.9986 5.07546L18 5.31374L17.9986 16.2224C17.9849 17.6134 17.8364 18.3296 17.4497 19.0718C17.0846 19.7788 16.5215 20.3571 15.8332 20.732C15.1104 21.1291 14.413 21.281 13.0579 21.2957L12.8259 21.2971L11.7376 21.2964V19.6805H12.8259L13.2023 19.677C14.1427 19.6594 14.5862 19.5666 15.0112 19.3488L15.0913 19.3066C15.5051 19.0823 15.8434 18.7349 16.0618 18.3099C16.317 17.8193 16.4156 17.3427 16.4245 16.183L16.4259 15.9834V5.31374L16.4224 4.92716C16.404 3.90096 16.3033 3.45112 16.0618 2.98722C15.8434 2.56219 15.5051 2.2148 15.0913 1.99054C14.6683 1.75859 14.2563 1.65316 13.3837 1.62505L13.2023 1.62013L12.8259 1.61661H9.96502C8.6927 1.61661 8.20403 1.71361 7.69962 1.99054C7.28576 2.2148 6.94749 2.56219 6.72913 2.98722C6.5416 3.3478 6.43894 3.70064 6.39377 4.32198H4.81688C4.87437 3.3984 5.0311 2.82064 5.34114 2.2253C5.70623 1.51835 6.26934 0.940054 6.95772 0.565112C7.68046 0.167987 8.37719 0.0161662 9.73232 0.00140582ZM6.17544 7.94249L4.12837 7.94319C3.26053 7.95163 2.91491 8.02754 2.5597 8.22224C2.25605 8.38656 2.00791 8.64139 1.84791 8.95323C1.66996 9.29553 1.59331 9.62869 1.57757 10.404L1.57483 10.7385L1.57551 17.761C1.58236 18.4807 1.63164 18.8504 1.75072 19.159L1.78152 19.2349L1.84722 19.3719C2.01285 19.6896 2.25103 19.9342 2.55901 20.1029C2.89232 20.2857 3.21673 20.3644 3.97164 20.3806L4.29741 20.3834H6.17544L6.50122 20.3806C7.25612 20.3644 7.58053 20.2864 7.91316 20.1036C8.21681 19.9393 8.46494 19.6845 8.62494 19.3727C8.80289 19.0304 8.87954 18.6972 8.89529 17.9219L8.89802 17.5873V10.7385L8.89529 10.404C8.87954 9.62869 8.80357 9.29553 8.62563 8.95393C8.46562 8.64209 8.21749 8.38726 7.91384 8.22294C7.58053 8.04019 7.25612 7.96147 6.50122 7.9453L6.17544 7.94249Z" fill="#15E78F"/>
</svg>
